<svg xmlns="http://www.w3.org/2000/svg" viewBox="0 0 128 128">
  <!-- GitHub Octocat silhouette -->
  <path fill="currentColor" d="M64 8C29.5 8 2 35.5 2 70c0 27.4 17.8 50.6 42.4 58.8 3.1.6 4.2-1.3 4.2-3 0-1.5-.1-6.3-.1-11.4-15.5 2.9-19.6-3.7-20.8-7.1-0.7-1.8-3.7-7.1-6.4-8.5-2.2-1.2-5.3-4.1-.1-4.2 4.9-.1 8.4 4.5 9.6 6.4 5.6 9.4 14.6 6.8 18.2 5.1.6-4 2.2-6.8 4-8.3-14-.6-28.6-7-28.6-31 0-6.8 2.4-12.5 6.4-16.9-.6-1.6-2.8-8 .6-16.7 0 0 5.2-1.7 17.2 6.4 5-1.4 10.3-2.1 15.6-2.1s10.6.7 15.6 2.1c12-8.2 17.2-6.4 17.2-6.4 3.4 8.7 1.2 15.1.6 16.7 4 4.4 6.4 10 6.4 16.9 0 24.2-14.7 30.4-28.8 32 2.3 2 4.3 5.8 4.3 11.8 0 8.5-.1 15.4-.1 17.5 0 1.7 1.1 3.7 4.3 3C108.2 120.6 126 97.4 126 70c0-34.5-27.5-62-62-62z"/>
  <!-- Lock overlay -->
  <g transform="translate(72, 72)">
    <rect x="4" y="20" width="40" height="32" rx="4" fill="currentColor"/>
    <path d="M12 20V14c0-6.6 5.4-12 12-12s12 5.4 12 12v6" stroke="currentColor" stroke-width="6" fill="none" stroke-linecap="round"/>
    <circle cx="24" cy="36" r="4" fill="#1e1e1e"/>
    <rect x="22" y="36" width="4" height="8" fill="#1e1e1e"/>
  </g>
</svg>
